<svg width="20" height="21" fill="none" xmlns="http://www.w3.org/2000/svg"><path d="M19.245 10.656c0-.643-.066-1.138-.16-1.634H9.817v3.375h5.571c-.227 1.433-1.687 4.232-5.571 4.232-3.348 0-6.08-2.772-6.08-6.2 0-3.429 2.732-6.201 6.08-6.201 1.915 0 3.188.817 3.91 1.513l2.666-2.558C14.679 1.576 12.469.612 9.817.612A9.814 9.814 0 000 10.429a9.814 9.814 0 009.817 9.816c5.665 0 9.428-3.977 9.428-9.589zm11.612-1.634h-2.799V6.223h-2.813v2.8h-2.799v2.812h2.8v2.799h2.812v-2.8h2.8V9.023z" fill="#fff"/></svg>