<svg width="22" height="17" fill="none" xmlns="http://www.w3.org/2000/svg"><path d="M21.371 10.429C21.371 4.75 16.764.143 11.086.143 5.405.143.8 4.75.8 10.429c0 4.218 2.531 7.834 6.16 9.428-.026-.723-.013-1.594.175-2.37 0 0 .2-.83 1.326-5.599-.335-.656-.335-1.633-.335-1.633 0-1.527.884-2.666 1.982-2.666.937 0 1.393.71 1.393 1.554 0 .937-.603 2.344-.911 3.643-.255 1.098.55 1.982 1.62 1.982 1.956 0 3.268-2.505 3.268-5.464 0-2.264-1.526-3.951-4.285-3.951-3.12 0-5.063 2.33-5.063 4.928 0 .898.268 1.527.683 2.023.188.227.214.308.148.575-.054.188-.161.643-.215.817-.067.268-.281.362-.509.268-1.433-.589-2.102-2.17-2.102-3.937 0-2.92 2.464-6.429 7.339-6.429 3.937 0 6.522 2.853 6.522 5.893 0 4.045-2.25 7.058-5.558 7.058-1.111 0-2.156-.603-2.504-1.286-.603 2.37-.723 2.826-.723 2.826-.215.79-.657 1.58-1.045 2.197.937.281 1.902.428 2.92.428 5.678 0 10.285-4.607 10.285-10.285z" fill="#fff"/></svg>