<svg width="21" height="21" fill="none" xmlns="http://www.w3.org/2000/svg"><path d="M20.571 10.429C20.571 4.75 15.964.143 10.286.143 4.607.143 0 4.75 0 10.429c0 4.218 2.531 7.834 6.16 9.428-.026-.723-.013-1.594.175-2.37 0 0 .2-.83 1.326-5.599-.335-.656-.335-1.633-.335-1.633 0-1.527.884-2.666 1.982-2.666.938 0 1.393.71 1.393 1.554 0 .937-.603 2.344-.91 3.643-.255 1.098.548 1.982 1.62 1.982 1.955 0 3.268-2.505 3.268-5.464 0-2.264-1.527-3.951-4.286-3.951-3.12 0-5.063 2.33-5.063 4.928 0 .898.268 1.527.683 2.023.188.227.215.308.148.575-.054.188-.161.643-.215.817-.067.268-.28.362-.508.268-1.434-.589-2.103-2.17-2.103-3.937 0-2.92 2.464-6.429 7.34-6.429 3.937 0 6.521 2.853 6.521 5.893 0 4.045-2.25 7.058-5.558 7.058-1.111 0-2.156-.603-2.504-1.286-.603 2.37-.723 2.826-.723 2.826-.215.79-.657 1.58-1.045 2.197.938.281 1.902.428 2.92.428 5.678 0 10.285-4.607 10.285-10.285z" fill="#fff"/></svg>