<svg width="28" height="28" fill="none" xmlns="http://www.w3.org/2000/svg"><path fill-rule="evenodd" clip-rule="evenodd" d="M27.981 13.793c0 7.616-6.264 13.79-13.99 13.79C6.264 27.583 0 21.41 0 13.793 0 6.176 6.264.002 13.99.002c7.727 0 13.991 6.174 13.991 13.79zm-1.12 0c0 7.007-5.762 12.687-12.87 12.687-7.11 0-12.872-5.68-12.872-12.687S6.882 1.105 13.991 1.105c7.108 0 12.87 5.68 12.87 12.688zm-15.109-2.758v.551h1.12v8.826h-1.12v.552h4.477v-.552h-1.12v-9.377h-3.357zm3.917-2.759c0 .914-.751 1.655-1.678 1.655-.928 0-1.68-.74-1.68-1.655 0-.914.752-1.655 1.68-1.655.927 0 1.678.741 1.678 1.655z" fill="#fff"/></svg>